<svg xmlns="http://www.w3.org/2000/svg" version="1.1" xmlns:xlink="http://www.w3.org/1999/xlink" width="200" height="200"><svg xmlns="http://www.w3.org/2000/svg" version="1.1" xmlns:xlink="http://www.w3.org/1999/xlink" width="200" height="200"><svg xmlns="http://www.w3.org/2000/svg" version="1.1" xmlns:xlink="http://www.w3.org/1999/xlink" viewBox="0 0 200 200"><rect width="200" height="200" fill="url('#gradient')"></rect><defs><linearGradient id="gradient" gradientTransform="rotate(45 0.5 0.5)"><stop offset="0%" stop-color="#ffffff"></stop><stop offset="100%" stop-color="#ffffff"></stop></linearGradient></defs><g><g fill="#ff0000" transform="matrix(2.7335014088684564,0,0,2.7335014088684564,7.070597399647681,120.23025351434828)" stroke="#0c2841" stroke-width="0"><path d="M12.95-14.22L12.95 0L9.54 0L4.50-8.85L4.50 0L1.07 0L1.07-14.22L4.50-14.22L9.53-5.37L9.53-14.22L12.95-14.22ZM18.44-10.57L18.44 0L15.14 0L15.14-10.57L18.44-10.57ZM14.94-13.29L14.94-13.29Q14.94-13.99 15.45-14.44Q15.96-14.89 16.77-14.89Q17.58-14.89 18.09-14.44Q18.59-13.99 18.59-13.29Q18.59-12.59 18.09-12.14Q17.58-11.69 16.77-11.69Q15.96-11.69 15.45-12.14Q14.94-12.59 14.94-13.29ZM24.93-2.34L24.93-2.34Q25.63-2.34 26.01-2.72Q26.39-3.10 26.38-3.77L26.38-3.77L29.46-3.77Q29.46-2.03 28.22-0.92Q26.97 0.20 25.01 0.20L25.01 0.20Q22.71 0.20 21.38-1.25Q20.05-2.70 20.05-5.25L20.05-5.25L20.05-5.39Q20.05-6.99 20.64-8.22Q21.23-9.44 22.34-10.10Q23.46-10.76 24.98-10.76L24.98-10.76Q27.04-10.76 28.25-9.62Q29.46-8.48 29.46-6.52L29.46-6.52L26.38-6.52Q26.38-7.34 25.98-7.78Q25.58-8.22 24.90-8.22L24.90-8.22Q23.62-8.22 23.41-6.59L23.41-6.59Q23.34-6.07 23.34-5.17L23.34-5.17Q23.34-3.57 23.72-2.96Q24.10-2.34 24.93-2.34ZM30.45-4.82L30.44-5.38Q30.44-6.96 31.05-8.20Q31.67-9.43 32.82-10.10Q33.97-10.76 35.53-10.76L35.53-10.76Q37.90-10.76 39.27-9.29Q40.63-7.82 40.63-5.29L40.63-5.29L40.63-5.18Q40.63-2.71 39.26-1.25Q37.89 0.20 35.55 0.20L35.55 0.20Q33.29 0.20 31.92-1.16Q30.56-2.51 30.45-4.82L30.45-4.82ZM33.74-5.77L33.73-5.18Q33.73-3.71 34.19-3.03Q34.65-2.34 35.55-2.34L35.55-2.34Q37.30-2.34 37.34-5.05L37.34-5.05L37.34-5.38Q37.34-8.22 35.53-8.22L35.53-8.22Q33.88-8.22 33.74-5.77L33.74-5.77ZM45.56-15L45.56 0L42.26 0L42.26-15L45.56-15ZM56.83 0L53.54 0Q53.36-0.32 53.22-0.95L53.22-0.95Q52.31 0.20 50.68 0.20L50.68 0.20Q49.19 0.20 48.14-0.71Q47.10-1.61 47.10-2.98L47.10-2.98Q47.10-4.70 48.37-5.58Q49.64-6.46 52.06-6.46L52.06-6.46L53.08-6.46L53.08-7.01Q53.08-8.47 51.82-8.47L51.82-8.47Q50.64-8.47 50.64-7.31L50.64-7.31L47.35-7.31Q47.35-8.85 48.66-9.80Q49.96-10.76 51.98-10.76Q54.00-10.76 55.18-9.78Q56.35-8.79 56.38-7.07L56.38-7.07L56.38-2.39Q56.40-0.94 56.83-0.17L56.83-0.17L56.83 0ZM51.47-2.15L51.47-2.15Q52.09-2.15 52.50-2.41Q52.90-2.68 53.08-3.01L53.08-3.01L53.08-4.70L52.12-4.70Q50.40-4.70 50.40-3.15L50.40-3.15Q50.40-2.71 50.70-2.43Q51.01-2.15 51.47-2.15ZM63.73-2.97L63.73-2.97Q63.73-3.39 63.29-3.64Q62.85-3.90 61.62-4.17Q60.39-4.44 59.59-4.89Q58.79-5.33 58.37-5.97Q57.95-6.60 57.95-7.42L57.95-7.42Q57.95-8.88 59.15-9.82Q60.35-10.76 62.29-10.76L62.29-10.76Q64.38-10.76 65.65-9.81Q66.92-8.87 66.92-7.32L66.92-7.32L63.62-7.32Q63.62-8.59 62.29-8.59L62.29-8.59Q61.77-8.59 61.42-8.31Q61.06-8.02 61.06-7.59L61.06-7.59Q61.06-7.15 61.49-6.88Q61.92-6.60 62.87-6.43Q63.81-6.25 64.52-6.01L64.52-6.01Q66.90-5.19 66.90-3.07L66.90-3.07Q66.90-1.62 65.62-0.71Q64.34 0.20 62.29 0.20L62.29 0.20Q60.94 0.20 59.87-0.29Q58.81-0.78 58.21-1.62Q57.62-2.46 57.62-3.39L57.62-3.39L60.69-3.39Q60.71-2.66 61.18-2.32Q61.65-1.98 62.38-1.98L62.38-1.98Q63.06-1.98 63.39-2.26Q63.73-2.53 63.73-2.97Z"></path></g></g></svg></svg><style>@media (prefers-color-scheme: light) { :root { filter: none; } }
@media (prefers-color-scheme: dark) { :root { filter: none; } }
</style></svg>